<svg id="svg" version="1.1" xmlns="http://www.w3.org/2000/svg" xmlns:xlink="http://www.w3.org/1999/xlink" width="400" height="400" viewBox="0, 0, 400,400"><g id="svgg"><path id="path0" d="M191.049 11.328 C 180.105 11.776,169.584 13.182,156.064 16.004 C 116.834 24.190,77.180 47.432,50.702 77.755 L 45.462 83.757 57.873 96.171 C 64.699 102.998,70.367 108.584,70.468 108.584 C 70.570 108.584,71.353 107.362,72.207 105.869 C 92.340 70.695,122.723 44.499,157.218 32.571 C 166.106 29.498,179.418 26.538,187.821 25.766 C 193.689 25.227,210.266 25.315,214.527 25.907 C 216.383 26.165,218.826 26.460,219.956 26.563 C 221.086 26.665,223.397 27.058,225.092 27.436 C 226.787 27.814,228.767 28.212,229.494 28.322 C 231.278 28.591,239.994 31.096,244.217 32.553 C 277.743 44.122,307.301 68.971,327.149 102.274 C 328.496 104.534,329.713 106.499,329.855 106.641 C 330.058 106.844,355.406 89.291,358.333 86.921 L 358.980 86.398 356.105 82.891 C 331.793 53.227,297.843 30.838,260.262 19.685 C 253.059 17.548,241.976 14.872,237.697 14.237 C 236.010 13.986,233.177 13.523,231.401 13.207 C 229.626 12.890,226.324 12.489,224.065 12.315 C 221.805 12.141,219.098 11.873,218.048 11.721 C 216.112 11.439,195.614 11.141,191.049 11.328 M278.063 283.097 C 264.286 284.186,252.061 288.755,224.065 303.276 C 203.748 313.813,186.716 319.815,160.675 325.612 C 146.509 328.765,145.264 328.936,134.703 329.165 C 122.745 329.424,114.818 328.804,108.024 327.079 C 104.527 326.191,104.540 326.097,107.773 328.885 C 114.473 334.660,127.170 343.494,133.170 346.555 C 135.850 347.922,144.029 347.443,155.539 345.244 C 175.053 341.516,175.460 341.391,195.304 333.069 C 201.922 330.293,210.638 326.734,214.674 325.160 C 218.709 323.586,224.784 321.084,228.173 319.601 C 241.176 313.912,249.607 310.802,263.096 306.718 C 282.246 300.921,297.576 301.838,309.024 309.467 C 310.396 310.382,311.783 311.237,312.106 311.368 C 314.086 312.173,331.399 328.731,334.816 333.089 C 345.321 346.485,362.501 357.726,372.487 357.738 C 374.499 357.741,374.598 357.458,372.927 356.477 C 365.629 352.190,352.728 339.893,344.080 328.980 C 343.120 327.770,342.172 326.675,341.973 326.547 C 341.238 326.078,336.153 318.663,331.975 311.969 C 322.532 296.839,313.700 290.188,296.693 285.399 C 292.256 284.150,282.231 282.714,279.677 282.961 C 279.435 282.985,278.709 283.046,278.063 283.097 M303.438 320.690 L 301.834 322.377 303.522 320.773 C 304.450 319.891,305.209 319.131,305.209 319.086 C 305.209 318.868,304.928 319.122,303.438 320.690 " stroke="none" fill="#c41c1c" fill-rule="evenodd"></path><path id="path1" d="" stroke="none" fill="#f4641c" fill-rule="evenodd"></path><path id="path2" d="M30.081 114.581 C 21.320 116.633,19.162 119.427,13.742 135.730 C 13.210 137.331,10.473 147.766,8.662 155.099 C 7.656 159.173,5.672 169.789,5.290 173.147 C 5.115 174.681,4.863 176.794,4.729 177.843 C 3.833 184.868,4.096 210.146,5.147 218.048 C 10.050 254.912,24.449 286.459,49.550 315.334 C 55.664 322.367,73.076 338.565,73.773 337.868 C 73.873 337.768,73.955 337.819,73.955 337.982 C 73.955 338.435,78.670 342.051,85.255 346.648 C 95.565 353.846,111.940 362.658,122.524 366.703 C 123.654 367.135,124.974 367.660,125.459 367.870 C 131.045 370.290,141.599 373.591,151.284 375.948 C 161.258 378.375,167.820 379.657,172.854 380.160 C 173.580 380.233,175.033 380.424,176.082 380.586 C 184.090 381.817,200.489 382.285,213.940 381.667 C 230.046 380.927,247.385 377.636,266.031 371.778 C 270.553 370.358,280.549 366.651,280.851 366.283 C 280.932 366.185,281.196 366.062,281.438 366.011 C 284.034 365.460,307.781 353.381,308.095 352.451 C 308.150 352.291,308.288 352.219,308.403 352.290 C 308.621 352.425,319.568 345.176,320.892 344.021 C 321.308 343.657,321.724 343.360,321.817 343.360 C 321.910 343.360,323.377 342.271,325.077 340.939 C 326.777 339.607,328.516 338.257,328.941 337.938 C 329.366 337.618,330.852 336.416,332.242 335.265 L 334.771 333.173 328.542 326.748 C 322.496 320.512,316.543 314.900,313.603 312.665 L 312.165 311.572 310.813 313.013 C 310.069 313.805,308.273 315.755,306.821 317.346 C 304.523 319.865,300.995 323.260,295.614 328.132 C 289.880 333.323,278.074 341.586,269.552 346.373 C 262.493 350.339,247.108 357.153,245.214 357.153 C 244.961 357.153,244.754 357.263,244.754 357.398 C 244.754 357.532,244.560 357.642,244.322 357.642 C 243.782 357.642,240.258 358.682,240.059 358.900 C 239.978 358.989,239.714 359.079,239.472 359.101 C 239.230 359.123,236.324 359.831,233.015 360.674 C 229.707 361.516,226.537 362.265,225.972 362.336 C 225.407 362.407,223.360 362.716,221.423 363.021 C 205.499 365.532,187.157 364.819,171.093 361.065 C 163.682 359.333,152.723 355.922,148.643 354.077 C 148.158 353.858,146.574 353.157,145.121 352.519 C 131.010 346.319,113.822 335.308,105.713 327.273 C 104.790 326.359,102.963 324.619,101.653 323.407 C 87.258 310.090,71.717 287.632,63.370 268.085 C 62.818 266.794,62.300 265.671,62.218 265.591 C 62.136 265.510,62.029 265.246,61.980 265.004 C 61.931 264.762,61.351 263.177,60.692 261.482 C 51.620 238.169,47.719 213.626,48.727 186.207 C 49.030 177.967,50.675 163.278,51.652 160.088 C 51.801 159.604,52.259 157.491,52.672 155.393 C 53.399 151.691,54.587 147.023,56.178 141.608 C 60.609 126.532,45.565 110.953,30.081 114.581 M363.903 114.599 C 350.904 117.215,342.006 130.963,346.356 141.709 C 346.527 142.133,346.708 142.744,346.757 143.067 C 346.807 143.390,347.238 145.040,347.715 146.735 C 349.370 152.610,351.321 162.197,352.136 168.452 C 352.483 171.115,352.893 174.219,353.047 175.348 C 353.200 176.478,353.401 179.120,353.491 181.218 C 353.582 183.316,353.718 185.825,353.794 186.794 C 353.966 188.993,353.960 204.227,353.786 206.016 C 353.716 206.742,353.580 208.591,353.484 210.125 C 351.681 238.948,338.548 276.136,322.513 297.825 L 321.816 298.767 324.625 301.621 C 327.741 304.787,327.814 304.887,332.753 312.795 C 336.044 318.066,339.813 323.629,341.431 325.605 L 342.151 326.486 347.085 321.497 C 371.186 297.127,389.952 261.575,395.573 229.640 C 396.792 222.714,397.821 214.397,398.078 209.391 C 398.452 202.106,398.579 185.537,398.262 185.341 C 398.069 185.221,397.946 183.979,397.947 182.154 C 397.949 179.213,397.414 174.099,396.622 169.479 C 395.536 163.145,393.781 154.528,393.095 152.164 C 392.673 150.712,391.946 147.938,391.480 146.001 C 389.026 135.811,385.312 124.993,383.111 121.626 C 379.336 115.849,371.655 113.039,363.903 114.599 " stroke="none" fill="#f45c1a" fill-rule="evenodd"></path><path id="path3" d="M325.459 323.551 C 328.441 326.537,330.948 328.980,331.029 328.980 C 331.109 328.980,328.735 326.537,325.752 323.551 C 322.769 320.565,320.263 318.122,320.182 318.122 C 320.101 318.122,322.476 320.565,325.459 323.551 " stroke="none" fill="#d42d1c" fill-rule="evenodd"></path><path id="path4" d="M324.285 301.486 C 324.285 301.536,324.714 301.966,325.238 302.440 L 326.192 303.302 325.330 302.348 C 324.527 301.459,324.285 301.259,324.285 301.486 " stroke="none" fill="#dc3c1c" fill-rule="evenodd"></path><path id="path5" d="M98.313 320.268 C 98.313 320.318,98.742 320.748,99.266 321.222 L 100.220 322.084 99.358 321.130 C 98.555 320.241,98.313 320.041,98.313 320.268 M331.475 329.861 C 332.270 330.668,332.986 331.328,333.067 331.328 C 333.147 331.328,332.563 330.668,331.768 329.861 C 330.973 329.054,330.257 328.393,330.176 328.393 C 330.095 328.393,330.680 329.054,331.475 329.861 " stroke="none" fill="#ec541c" fill-rule="evenodd"></path><path id="path6" d="" stroke="none" fill="#e4441c" fill-rule="evenodd"></path><path id="path7" d="" stroke="none" fill="#e64c1c" fill-rule="evenodd"></path><path id="path8" d="" stroke="none" fill="#f46414" fill-rule="evenodd"></path></g></svg>